# xmcd CD database file
#
# Track frame offsets:
#	150
#	12453
#	28150
#	37838
#	45312
#	60288
#	84255
#	99752
#	105623
#	122630
#	138039
#	159684
#	181721
#	196126
#	216008
#
# Disc length: 3110 seconds
#
# Revision: 0
# Processed by: cddbd v1.5.2PL0 Copyright (c) Steve Scherf et al.
# Submitted via: CDex 1.70beta2
#
DISCID=ab0c240f
DTITLE=Nataliya Gudziy - こころに咲く花
DYEAR=2006
DGENRE=Country
TTITLE0=夢
TTITLE1=私の大地
TTITLE2=深い井戸
TTITLE3=赤いブーツ
TTITLE4=もし刺繍ができたなら
TTITLE5=お母さんの桜の木
TTITLE6=フリステンカ
TTITLE7=黒い瞳
TTITLE8=夕焼けの鶴
TTITLE9=バンドゥーラを手にすれば
TTITLE10=こころに咲く花
TTITLE11=Ｇ線上のアリア　～時よ～
TTITLE12=ふるさと
TTITLE13=ねがい　～いつまでも消えないように～
TTITLE14=希望の灯
EXTD=YEAR: 2006
EXTT0=
EXTT1=
EXTT2=
EXTT3=
EXTT4=
EXTT5=
EXTT6=
EXTT7=
EXTT8=
EXTT9=
EXTT10=
EXTT11=
EXTT12=
EXTT13=
EXTT14=
PLAYORDER=
